<svg width="24" height="24" viewBox="0 0 24 24" fill="none" xmlns="http://www.w3.org/2000/svg">
    <path d="M16 4C16 2.9 16.9 2 18 2C19.1 2 20 2.9 20 4C20 5.1 19.1 6 18 6C16.9 6 16 5.1 16 4ZM20 22V19C20 17.9 19.1 17 18 17C16.9 17 16 17.9 16 19V22H20ZM12 7C14.76 7 17 9.24 17 12C17 14.76 14.76 17 12 17C9.24 17 7 14.76 7 12C7 9.24 9.24 7 12 7ZM12 5C8.14 5 5 8.14 5 12C5 15.86 8.14 19 12 19C15.86 19 19 15.86 19 12C19 8.14 15.86 5 12 5ZM8 22V19C8 17.9 7.1 17 6 17C4.9 17 4 17.9 4 19V22H8ZM4 14C4 15.1 4.9 16 6 16C7.1 16 8 15.1 8 14C8 12.9 7.1 12 6 12C4.9 12 4 12.9 4 14Z" fill="white"/>
</svg>